{
  "accessors": [
    {
      "bufferView": 2,
      "componentType": 5126,
      "count": 65532,
      "max": [
        0.5075039863586426,
        0.7207430005073547,
        0.14038300514221191
      ],
      "min": [
        -0.5316240191459656,
        -0.2787260115146637,
        -2.18710994720459
      ],
      "type": "VEC3"
    },
    {
      "bufferView": 2,
      "byteOffset": 786384,
      "componentType": 5126,
      "count": 65532,
      "max": [
        0.999933123588562,
        0.9999384880065918,
        0.9988673329353333
      ],
      "min": [
        -0.9999281167984009,
        -0.9999973773956299,
        -0.9998698830604553
      ],
      "type": "VEC3"
    },
    {
      "bufferView": 3,
      "componentType": 5126,
      "count": 65532,
      "max": [
        0.9999730587005615,
        0.9977184534072876,
        0.9985039830207825,
        1.0
      ],
      "min": [
        -0.9984176158905029,
        -0.9997589588165283,
        -0.9995056390762329,
        -1.0
      ],
      "type": "VEC4"
    },
    {
      "bufferView": 1,
      "componentType": 5126,
      "count": 65532,
      "max": [
        0.921733021736145,
        0.9980080127716064
      ],
      "min": [
        0.0018400000408291817,
        0.0019920000340789557
      ],
      "type": "VEC2"
    },
    {
      "bufferView": 0,
      "componentType": 5125,
      "count": 96192,
      "type": "SCALAR"
    },
    {
      "bufferView": 2,
      "byteOffset": 1572768,
      "componentType": 5126,
      "count": 65532,
      "max": [
        0.4908260107040405,
        0.5757420063018799,
        -0.857213020324707
      ],
      "min": [
        -0.33899399638175964,
        -0.2787260115146637,
        -1.9031399488449097
      ],
      "type": "VEC3"
    },
    {
      "bufferView": 2,
      "byteOffset": 2359152,
      "componentType": 5126,
      "count": 65532,
      "max": [
        0.9999143481254578,
        0.9995715022087097,
        0.9975600242614746
      ],
      "min": [
        -0.9999526143074036,
        -0.9998604655265808,
        -0.9999527335166931
      ],
      "type": "VEC3"
    },
    {
      "bufferView": 3,
      "byteOffset": 1048512,
      "componentType": 5126,
      "count": 65532,
      "max": [
        0.9999517798423767,
        0.9994291067123413,
        0.9960120916366577,
        1.0
      ],
      "min": [
        -0.8785236477851868,
        -0.9996864795684814,
        -0.9974657297134399,
        -1.0
      ],
      "type": "VEC4"
    },
    {
      "bufferView": 1,
      "byteOffset": 524256,
      "componentType": 5126,
      "count": 65532,
      "max": [
        0.921733021736145,
        0.9878110289573669
      ],
      "min": [
        0.0018400000408291817,
        0.03820500150322914
      ],
      "type": "VEC2"
    },
    {
      "bufferView": 0,
      "byteOffset": 384768,
      "componentType": 5125,
      "count": 98298,
      "type": "SCALAR"
    },
    {
      "bufferView": 2,
      "byteOffset": 3145536,
      "componentType": 5126,
      "count": 65532,
      "max": [
        0.5077940225601196,
        0.7185109853744507,
        -0.053931400179862976
      ],
      "min": [
        -0.5259209871292114,
        -0.28500300645828247,
        -1.4918999671936035
      ],
      "type": "VEC3"
    },
    {
      "bufferView": 2,
      "byteOffset": 3931920,
      "componentType": 5126,
      "count": 65532,
      "max": [
        0.9998547434806824,
        0.9999987483024597,
        0.9996961355209351
      ],
      "min": [
        -0.9998613595962524,
        -0.9990647435188293,
        -0.9997077584266663
      ],
      "type": "VEC3"
    },
    {
      "bufferView": 3,
      "byteOffset": 2097024,
      "componentType": 5126,
      "count": 65532,
      "max": [
        0.9999821782112122,
        0.9969215393066406,
        0.9986966252326965,
        1.0
      ],
      "min": [
        -0.9144682884216309,
        -0.9994897842407227,
        -0.9956973791122437,
        -1.0
      ],
      "type": "VEC4"
    },
    {
      "bufferView": 1,
      "byteOffset": 1048512,
      "componentType": 5126,
      "count": 65532,
      "max": [
        0.9197360277175903,
        0.9925370216369629
      ],
      "min": [
        0.0018400000408291817,
        0.0019920000340789557
      ],
      "type": "VEC2"
    },
    {
      "bufferView": 0,
      "byteOffset": 777960,
      "componentType": 5125,
      "count": 98298,
      "type": "SCALAR"
    },
    {
      "bufferView": 2,
      "byteOffset": 4718304,
      "componentType": 5126,
      "count": 65532,
      "max": [
        0.37163999676704407,
        0.6948000192642212,
        0.14834600687026978
      ],
      "min": [
        -0.5097519755363464,
        -0.11402799934148788,
        -0.793848991394043
      ],
      "type": "VEC3"
    },
    {
      "bufferView": 2,
      "byteOffset": 5504688,
      "componentType": 5126,
      "count": 65532,
      "max": [
        0.9999445080757141,
        0.9993157386779785,
        0.9997892379760742
      ],
      "min": [
        -0.9998859763145447,
        -0.9998030066490173,
        -0.9990361332893372
      ],
      "type": "VEC3"
    },
    {
      "bufferView": 3,
      "byteOffset": 3145536,
      "componentType": 5126,
      "count": 65532,
      "max": [
        0.9999926686286926,
        0.9995020627975464,
        0.9982842803001404,
        1.0
      ],
      "min": [
        -0.9170364737510681,
        -0.9995558857917786,
        -0.9961768984794617,
        -1.0
      ],
      "type": "VEC4"
    },
    {
      "bufferView": 1,
      "byteOffset": 1572768,
      "componentType": 5126,
      "count": 65532,
      "max": [
        0.921733021736145,
        0.9930099844932556
      ],
      "min": [
        0.0018400000408291817,
        0.002526999916881323
      ],
      "type": "VEC2"
    },
    {
      "bufferView": 0,
      "byteOffset": 1171152,
      "componentType": 5125,
      "count": 98298,
      "type": "SCALAR"
    },
    {
      "bufferView": 2,
      "byteOffset": 6291072,
      "componentType": 5126,
      "count": 65532,
      "max": [
        0.4389970004558563,
        0.7370309829711914,
        0.1485539972782135
      ],
      "min": [
        -0.5329650044441223,
        -0.12945599853992462,
        -0.9449380040168762
      ],
      "type": "VEC3"
    },
    {
      "bufferView": 2,
      "byteOffset": 7077456,
      "componentType": 5126,
      "count": 65532,
      "max": [
        0.9996562600135803,
        0.9997384548187256,
        0.9997581243515015
      ],
      "min": [
        -0.9999725818634033,
        -0.9999948740005493,
        -0.9996004700660706
      ],
      "type": "VEC3"
    },
    {
      "bufferView": 3,
      "byteOffset": 4194048,
      "componentType": 5126,
      "count": 65532,
      "max": [
        0.9999624490737915,
        0.9996324181556702,
        0.9990040063858032,
        1.0
      ],
      "min": [
        -0.971874475479126,
        -0.9995834231376648,
        -0.999758243560791,
        -1.0
      ],
      "type": "VEC4"
    },
    {
      "bufferView": 1,
      "byteOffset": 2097024,
      "componentType": 5126,
      "count": 65532,
      "max": [
        0.9184499979019165,
        0.9928609728813171
      ],
      "min": [
        0.0018400000408291817,
        0.0019920000340789557
      ],
      "type": "VEC2"
    },
    {
      "bufferView": 0,
      "byteOffset": 1564344,
      "componentType": 5125,
      "count": 98298,
      "type": "SCALAR"
    },
    {
      "bufferView": 2,
      "byteOffset": 7863840,
      "componentType": 5126,
      "count": 65532,
      "max": [
        0.4806869924068451,
        0.7379969954490662,
        -0.22497299313545227
      ],
      "min": [
        -0.5141969919204712,
        -0.22730299830436707,
        -1.1481000185012817
      ],
      "type": "VEC3"
    },
    {
      "bufferView": 2,
      "byteOffset": 8650224,
      "componentType": 5126,
      "count": 65532,
      "max": [
        0.9999317526817322,
        0.9998679757118225,
        0.9999183416366577
      ],
      "min": [
        -0.9999714493751526,
        -0.9999380111694336,
        -0.9988201260566711
      ],
      "type": "VEC3"
    },
    {
      "bufferView": 3,
      "byteOffset": 5242560,
      "componentType": 5126,
      "count": 65532,
      "max": [
        0.9999539256095886,
        0.9993368983268738,
        0.997684121131897,
        1.0
      ],
      "min": [
        -0.8483448028564453,
        -0.9984233379364014,
        -0.9991875290870667,
        -1.0
      ],
      "type": "VEC4"
    },
    {
      "bufferView": 1,
      "byteOffset": 2621280,
      "componentType": 5126,
      "count": 65532,
      "max": [
        0.921733021736145,
        0.9878110289573669
      ],
      "min": [
        0.0018400000408291817,
        0.06509000062942505
      ],
      "type": "VEC2"
    },
    {
      "bufferView": 0,
      "byteOffset": 1957536,
      "componentType": 5125,
      "count": 98307,
      "type": "SCALAR"
    },
    {
      "bufferView": 2,
      "byteOffset": 9436608,
      "componentType": 5126,
      "count": 40247,
      "max": [
        0.48263999819755554,
        0.7033720016479492,
        -0.40716099739074707
      ],
      "min": [
        -0.4094200134277344,
        -0.27902698516845703,
        -1.3161799907684326
      ],
      "type": "VEC3"
    },
    {
      "bufferView": 2,
      "byteOffset": 9919572,
      "componentType": 5126,
      "count": 40247,
      "max": [
        0.9994073510169983,
        0.9983582496643066,
        0.9999706149101257
      ],
      "min": [
        -0.9996587634086609,
        -0.999933660030365,
        -0.9886893630027771
      ],
      "type": "VEC3"
    },
    {
      "bufferView": 3,
      "byteOffset": 6291072,
      "componentType": 5126,
      "count": 40247,
      "max": [
        0.999981164932251,
        0.9996433854103088,
        0.9973485469818115,
        1.0
      ],
      "min": [
        -0.8867933750152588,
        -0.9963580369949341,
        -0.997544527053833,
        1.0
      ],
      "type": "VEC4"
    },
    {
      "bufferView": 1,
      "byteOffset": 3145536,
      "componentType": 5126,
      "count": 40247,
      "max": [
        0.9132980108261108,
        0.9925280213356018
      ],
      "min": [
        0.0018400000408291817,
        0.11202999949455261
      ],
      "type": "VEC2"
    },
    {
      "bufferView": 0,
      "byteOffset": 2350764,
      "componentType": 5125,
      "count": 60369,
      "type": "SCALAR"
    }
  ],
  "asset": {
    "extras": {
      "author": "danny_p3d (https://sketchfab.com/dannyp_3d)",
      "license": "CC-BY-4.0 (http://creativecommons.org/licenses/by/4.0/)",
      "source": "https://sketchfab.com/3d-models/deer-skull-b66da9cc7f4e4895bfcd334c66f003f2",
      "title": "Deer Skull"
    },
    "generator": "Sketchfab-12.63.0",
    "version": "2.0"
  },
  "bufferViews": [
    {
      "buffer": 0,
      "byteLength": 2592240,
      "name": "floatBufferViews",
      "target": 34963
    },
    {
      "buffer": 0,
      "byteLength": 3467512,
      "byteOffset": 2592240,
      "byteStride": 8,
      "name": "floatBufferViews",
      "target": 34962
    },
    {
      "buffer": 0,
      "byteLength": 10402536,
      "byteOffset": 6059752,
      "byteStride": 12,
      "name": "floatBufferViews",
      "target": 34962
    },
    {
      "buffer": 0,
      "byteLength": 6935024,
      "byteOffset": 16462288,
      "byteStride": 16,
      "name": "floatBufferViews",
      "target": 34962
    }
  ],
  "buffers": [
    {
      "byteLength": 23397312,
      "uri": "scene.bin"
    }
  ],
  "images": [
    {
      "uri": "textures/retopo_initialShadingGroup_baseColor.jpeg"
    },
    {
      "uri": "textures/retopo_initialShadingGroup_metallicRoughness.png"
    },
    {
      "uri": "textures/retopo_initialShadingGroup_normal.png"
    }
  ],
  "materials": [
    {
      "doubleSided": true,
      "name": "retopo_initialShadingGroup",
      "normalTexture": {
        "index": 2
      },
      "occlusionTexture": {
        "index": 1
      },
      "pbrMetallicRoughness": {
        "baseColorTexture": {
          "index": 0
        },
        "metallicRoughnessTexture": {
          "index": 1
        }
      }
    }
  ],
  "meshes": [
    {
      "name": "defaultMaterial",
      "primitives": [
        {
          "attributes": {
            "NORMAL": 1,
            "POSITION": 0,
            "TANGENT": 2,
            "TEXCOORD_0": 3
          },
          "indices": 4,
          "material": 0,
          "mode": 4
        }
      ]
    },
    {
      "name": "defaultMaterial",
      "primitives": [
        {
          "attributes": {
            "NORMAL": 6,
            "POSITION": 5,
            "TANGENT": 7,
            "TEXCOORD_0": 8
          },
          "indices": 9,
          "material": 0,
          "mode": 4
        }
      ]
    },
    {
      "name": "defaultMaterial",
      "primitives": [
        {
          "attributes": {
            "NORMAL": 11,
            "POSITION": 10,
            "TANGENT": 12,
            "TEXCOORD_0": 13
          },
          "indices": 14,
          "material": 0,
          "mode": 4
        }
      ]
    },
    {
      "name": "defaultMaterial",
      "primitives": [
        {
          "attributes": {
            "NORMAL": 16,
            "POSITION": 15,
            "TANGENT": 17,
            "TEXCOORD_0": 18
          },
          "indices": 19,
          "material": 0,
          "mode": 4
        }
      ]
    },
    {
      "name": "defaultMaterial",
      "primitives": [
        {
          "attributes": {
            "NORMAL": 21,
            "POSITION": 20,
            "TANGENT": 22,
            "TEXCOORD_0": 23
          },
          "indices": 24,
          "material": 0,
          "mode": 4
        }
      ]
    },
    {
      "name": "defaultMaterial",
      "primitives": [
        {
          "attributes": {
            "NORMAL": 26,
            "POSITION": 25,
            "TANGENT": 27,
            "TEXCOORD_0": 28
          },
          "indices": 29,
          "material": 0,
          "mode": 4
        }
      ]
    },
    {
      "name": "defaultMaterial",
      "primitives": [
        {
          "attributes": {
            "NORMAL": 31,
            "POSITION": 30,
            "TANGENT": 32,
            "TEXCOORD_0": 33
          },
          "indices": 34,
          "material": 0,
          "mode": 4
        }
      ]
    }
  ],
  "nodes": [
    {
      "children": [
        1
      ],
      "matrix": [
        1.0,
        0.0,
        0.0,
        0.0,
        0.0,
        3.828568672208042e-16,
        -1.0,
        0.0,
        0.0,
        1.0,
        3.828568672208042e-16,
        0.0,
        0.0,
        -4.237479811486363e-10,
        -1.708588825977131e-09,
        1.0
      ],
      "name": "Sketchfab_model"
    },
    {
      "children": [
        2
      ],
      "matrix": [
        1.0,
        0.0,
        0.0,
        0.0,
        0.0,
        -4.371139006309477e-08,
        0.999999999999999,
        0.0,
        0.0,
        -0.999999999999999,
        -4.371139006309477e-08,
        0.0,
        0.0,
        0.0,
        0.0,
        1.0
      ],
      "name": "Collada visual scene group"
    },
    {
      "children": [
        3,
        4,
        5,
        6,
        7,
        8,
        9
      ],
      "name": "defaultobject"
    },
    {
      "mesh": 0,
      "name": "defaultMaterial"
    },
    {
      "mesh": 1,
      "name": "defaultMaterial"
    },
    {
      "mesh": 2,
      "name": "defaultMaterial"
    },
    {
      "mesh": 3,
      "name": "defaultMaterial"
    },
    {
      "mesh": 4,
      "name": "defaultMaterial"
    },
    {
      "mesh": 5,
      "name": "defaultMaterial"
    },
    {
      "mesh": 6,
      "name": "defaultMaterial"
    }
  ],
  "samplers": [
    {
      "magFilter": 9729,
      "minFilter": 9987,
      "wrapS": 10497,
      "wrapT": 10497
    }
  ],
  "scene": 0,
  "scenes": [
    {
      "name": "Sketchfab_Scene",
      "nodes": [
        0
      ]
    }
  ],
  "textures": [
    {
      "sampler": 0,
      "source": 0
    },
    {
      "sampler": 0,
      "source": 1
    },
    {
      "sampler": 0,
      "source": 2
    }
  ]
}
